<svg xmlns="http://www.w3.org/2000/svg"><defs><font horiz-adv-x="1187"><font-face ascent="1649" descent="-399" units-per-em="2048"/><missing-glyph horiz-adv-x="395"/><glyph horiz-adv-x="395" unicode="&#x20;"/><glyph horiz-adv-x="395" unicode="&#x09;"/><glyph horiz-adv-x="395" unicode="&#xa0;"/><glyph d="M154 161q0 37 13.5 68.5t37.5 55 57 37.5 72 14q38 0 70.5-14t57-37.5 38.5-55 14-68.5-14-69.5-38.5-56-57-36.5-70.5-13q-39 0-72 13t-57 36.5-37.5 56-13.5 69.5zM255 681q0 56 3 111.5t10 111.5l72 588h285l-72-588q-11-93-33.5-185.5t-52.5-190.5h-207q-2 39-3.5 77t-1.5 76z" horiz-adv-x="714" unicode="&#x21;"/><glyph d="M184 1197l37 293h266l-36-293-48-162q-15-53-41.5-81t-78.5-28q-45 0-66 28t-24 81zM569 1197l37 293h266l-36-293-48-162q-15-53-41.5-81t-78.5-28q-45 0-66 28t-24 81z" horiz-adv-x="847" unicode="&#x22;"/><glyph d="M12 469q0 26 11 57l28 95h183l75 250h-207l39 124q14 46 47.5 67t100.5 21h76l92 309q14 47 53.5 72.5t87.5 25.5h141l-124-407h177l123 407h138q39 0 62.5-20.5t23.5-53.5q0-14-4-26l-92-307h202l-41-122q-15-46-48-68t-97-22h-72l-75-250h118q34 0 53-15t19-48q0-26-10-57l-29-94h-206l-122-407h-143q-34 0-54.5 24t-20.5 61q0 8 1 17.5t4 19.5l85 285h-177l-88-301q-8-29-24-49t-36-33-43-18.5-46-5.5h-138l124 407h-95q-34 0-53 14.5t-19 47.5zM484 621h179l74 250h-176z" unicode="&#x23;"/><glyph d="M2 180l113 136q14 17 35 28.5t45 11.5q25 0 48-13t51.5-32 63-38.5 80.5-31.5l87 401q-66 18-129.5 44t-115 67-83 103-31.5 154 38 178.5 109 154.5 172.5 111 228.5 49l25 116q6 29 31.5 51t58.5 22h113l-44-201q109-20 182-65t122-98l-88-109q-20-26-38.5-37t-43.5-11q-15 0-34.5 8t-43 19.5-51 24-59.5 21.5l-82-377q66-20 131-45.5t117-65 84-97 32-141.5q0-102-38-195t-110.5-164.5-175.5-117-233-54.5l-28-134q-5-27-31-49t-59-22h-113l46 212q-57 9-112 26.5t-104 41.5-91.5 53.5-74.5 64.5zM461 1076q0-55 35-89.5t92-58.5l70 323q-54-7-92-23.5t-61.5-39.5-33.5-51.5-10-60.5zM624 233q102 15 152.5 69t50.5 144q0 54-35 86.5t-91 55.5z" unicode="&#x24;"/><glyph d="M35 0l1216 1445q17 16 40.5 30.5t62.5 14.5h223l-1219-1447q-17-17-40-30t-56-13h-227zM119 1078q0 95 29.5 173.5t81 135 121 87 149.5 30.5q66 0 119.5-23t92-65.5 59-102 20.5-130.5q0-95-33.5-173t-87.5-133.5-122.5-85.5-139.5-30q-66 0-119 23t-91 65-58.5 100-20.5 129zM354 1078q0-71 21-98.5t57-27.5q27 0 49.5 11.5t39 38 25.5 70.5 9 109q0 74-22 104t-58 30q-28 0-50.5-13t-37.5-41-24-73-9-110zM817 298q0 96 30 175t81 135.5 120.5 87 149.5 30.5q66 0 119.5-23.5t92-65.5 59-102 20.5-132q0-95-33.5-172.5t-87-133-122-85.5-140.5-30q-66 0-119 23t-91 65-58.5 100-20.5 128zM1053 298q0-70 21-98t56-28q27 0 49.5 11.5t39 38.5 25.5 71 9 108q0 75-22 104t-57 29q-28 0-50.5-12.5t-38-40.5-24-73-8.5-110z" horiz-adv-x="1548" unicode="&#x25;"/><glyph d="M27 370q0 78 24 146t66 125.5 100 104.5 126 80q-29 62-40.5 123.5t-11.5 116.5q0 89 31.5 169t91 140.5 144.5 95.5 192 35q92 0 160.5-27.5t114-74 68.5-109 23-131.5l-184-36q-17-3-30-3-24 0-37 11t-21 36q-35 109-123 109-35 0-62-16t-45.5-42.5-28.5-62.5-10-76q0-41 14-86t48-97l278-367q56 113 81 242 5 28 20 45.5t45 17.5h217q-19-151-71.5-281t-130.5-235l245-323h-266q-37 0-63 4.5t-46.5 15-37.5 26-36 39.5l-18 24q-90-60-191.5-92.5t-209.5-32.5q-103 0-183.5 27t-134 77.5-81 122-27.5 159.5zM342 409q0-42 9-77t30-60 55-39 82-14q53 0 104.5 18.5t98.5 53.5l-267 365q-63-54-87.5-116t-24.5-131z" horiz-adv-x="1366" unicode="&#x26;"/><glyph d="M184 1197l37 293h266l-36-293-48-162q-15-53-41.5-81t-78.5-28q-45 0-66 28t-24 81z" horiz-adv-x="464" unicode="&#x27;"/><glyph d="M70 416q0 160 21 311t68 298 122 294 184 301l127-78q14-10 25-23t11-32q0-12-6.5-26.5t-17.5-35.5q-58-106-108-220.5t-85-238.5-55-256-20-273q0-68 4.5-143t14-151 24-149.5 35.5-136.5q4-12 6.5-23t2.5-20q0-28-15.5-45t-36.5-28l-146-79q-41 86-70 181t-48 192-28 194.5-9 186.5z" horiz-adv-x="565" unicode="&#x28;"/><glyph d="M-28-205q0 12 6.5 26.5t17.5 35.5q58 105 108 220.5t85 238.5 55 256 20 273q0 68-4.5 143t-13.5 151-24 149.5-36 136.5q-4 12-6.5 23t-2.5 20q0 28 15.5 45t36.5 28l146 79q41-86 70-180.5t48-192.5 28-195 9-186q0-160-21-311t-68-298-122-294-184-301l-127 78q-14 10-25 23t-11 32z" horiz-adv-x="565" unicode="&#x29;"/><glyph d="M119 1078l145 89q20 11 40.5 19.5t40.5 12.5q-39 6-73 31l-125 91 86 119 125-92q15-10 29.5-21.5t26.5-24.5q-4 17-4 43v16q0 9 2 17l22 181h144l-23-180q-3-20-7.5-44.5t-13.5-42.5q14 14 31 29.5t37 26.5l146 90 55-119-146-89q-20-11-40.5-19t-41.5-12q19-4 38-11.5t36-20.5l123-91-84-115-125 89q-16 10-30 21t-25 25q2-10 3-20.5t1-21.5q0-8-.5-17t-1.5-17l-23-181h-143l23 179q5 43 20 79-14-14-31-25.5t-37-21.5l-145-89z" horiz-adv-x="753" unicode="&#x2a;"/><glyph d="M96 579l29 219h379l51 407h248l-50-407h384l-29-219h-382l-50-410h-250l51 410h-381z" unicode="&#x2b;"/><glyph d="M31 180q0 33 12 61t35 49 54.5 33.5 70.5 12.5q46 0 79.5-16t56-43 33.5-62.5 11-74.5q0-51-16.5-109t-48.5-116-80.5-114.5-110.5-102.5l-55 49q-11 11-17 20.5t-6 22.5q0 16 18 36.5t41 47 45.5 58.5 32.5 73q-35 3-63.5 17.5t-49 37.5-31.5 53.5-11 66.5z" horiz-adv-x="483" unicode="&#x2c;"/><glyph d="M94 498l31 247h514l-33-247h-512z" horiz-adv-x="702" unicode="&#x2d;"/><glyph d="M25 161q0 37 13.5 68.5t37.5 55 57 37.5 72 14q38 0 70.5-14t57-37.5 38.5-55 14-68.5-14-69.5-38.5-56-57-36.5-70.5-13q-39 0-72 13t-57 36.5-37.5 56-13.5 69.5z" horiz-adv-x="483" unicode="&#x2e;"/><glyph d="M-94-103l698 1493q24 51 69 77.5t99 26.5h129l-692-1487q-12-28-32-48t-43.5-34-49-21-47.5-7h-131z" horiz-adv-x="768" unicode="&#x2f;"/><glyph d="M63 591q0 232 50.5 404t138 286 205.5 169.5 256 55.5q103 0 188-37.5t145.5-113.5 94-190 33.5-266q0-232-50.5-404t-138-286-206.5-169.5-255-55.5q-103 0-188 37.5t-145.5 114-94 190-33.5 265.5zM383 597q0-109 16-180t41.5-112.5 58-58.5 66.5-17q62 0 115.5 41t92 123.5 60 207.5 21.5 293q0 109-16 179.5t-41.5 112.5-58 59-66.5 17q-63 0-116-41t-91.5-124-60-208-21.5-292z" unicode="&#x30;"/><glyph d="M201 0l26 222h289l96 803 22 92-202-155q-17-13-34-17.5t-31-4.5q-27 0-45.5 11t-26.5 23l-80 129 510 390h254l-157-1271h251l-29-222h-843z" unicode="&#x31;"/><glyph d="M10 0l13 98q3 28 19 61.5t48 60.5l488 436q72 65 122 120t81 107.5 45 104 14 109.5q0 75-40 117.5t-120 42.5q-37 0-69-10.5t-59-29.5-47.5-44.5-33.5-55.5q-20-44-48.5-63.5t-70.5-19.5q-23 0-43 4l-157 28q31 111 87 193t131.5 137.5 167.5 82.5 193 27q99 0 178.5-28t134.5-78.5 84-120.5 29-153q0-92-27-168t-74-145-111-132.5-138-130.5l-338-308q57 16 112.5 25t102.5 9h297q46 0 70.5-23.5t24.5-62.5q0-2-.5-6.5l-2.5-22.5t-6.5-55.5-13.5-105.5h-1043z" unicode="&#x32;"/><glyph d="M63 381l144 55q19 8 37 11.5t36 3.5q32 0 54.5-12.5t32.5-36.5q34-89 82-129.5t126-40.5q59 0 105.5 21t78.5 56.5 48 83 16 100.5q0 37-11 67t-43.5 51.5-89.5 33-151 11.5l29 210q93 1 155 17t99 45 52.5 71.5 15.5 98.5q0 77-40.5 118t-119.5 41q-76 0-130-40t-81-100q-20-44-48.5-63.5t-69.5-19.5q-9 0-20 1t-22 3l-158 28q30 111 86.5 193t131.5 137.5 167 82.5 193 27 179-28 130-75.5 79.5-110.5 27.5-134q0-81-17-141.5t-50.5-103.5-83-71.5-114.5-46.5q105-43 157-117.5t52-179.5q0-85-22.5-156t-61.5-128-94-100-119.5-72.5-136.5-43.5-147-14q-106 0-187 23t-139.5 71.5-96.5 123.5-61 179z" unicode="&#x33;"/><glyph d="M16 560l807 932h301l-112-918h153l-24-171q-3-23-20.5-39.5t-47.5-16.5h-89l-42-347h-276l42 347h-598q-30 0-54.5 19t-27.5 52zM347 574h388l49 410q4 31 11 66t17 73z" unicode="&#x34;"/><glyph d="M12 170l111 128q17 20 38.5 29.5t43.5 9.5q30 0 55-16.5t55.5-36.5 72.5-36.5 106-16.5q73 0 125.5 26t86 68 50 97 16.5 116q0 90-55 142.5t-167 52.5q-43 0-93-8t-109-27l-182 52 219 742h758l-17-127q-4-31-16.5-57t-36.5-45-60-29-85-10h-365l-77-263q42 8 81 11t75 3q110 0 192-31t137-84.5 82.5-126.5 27.5-156q0-130-49-239.5t-135-187.5-202-122-251-44q-73 0-136.5 14.5t-117.5 40.5-98.5 59.5-79.5 71.5z" unicode="&#x35;"/><glyph d="M68 443q0 138 58.5 262.5t172.5 256.5l395 457q26 30 72 50.5t100 20.5h273l-550-578q38 14 79.5 21.5t87.5 7.5q75 0 145-24t124-72 87-121 33-169q0-117-45.5-221t-127-181.5-192.5-123-241-45.5q-113 0-201 34t-148 95-91 145.5-31 184.5zM358 433q0-47 13-85.5t38.5-65.5 64-42 89.5-15q55 0 105 21t87 59 59 89 22 112q0 50-15.5 89.5t-43 67-67.5 42.5-89 15q-55 0-103.5-20.5t-84-58-55.5-90-20-118.5z" unicode="&#x36;"/><glyph d="M123 0l672 1084q26 41 54 75t60 65h-665q-27 0-44.5 18.5t-17.5 41.5q0 11 2.5 34t7 52 9 60.5 8.5 61.5h1044l-14-118q-5-41-15-75.5t-24-57.5l-702-1173q-17-29-50-48.5t-67-19.5h-258z" unicode="&#x37;"/><glyph d="M51 375q0 71 17 133t54 114 94 91.5 137 64.5q-85 42-127 111.5t-42 163.5q0 97 41 180t113.5 144 169 95 209.5 34q97 0 177.5-28t137.5-76.5 88-115 31-143.5q0-131-62-225t-186-144q114-43 164.5-120t50.5-180q0-112-44-202.5t-122.5-154.5-186.5-98.5-235-34.5q-110 0-197.5 28t-150.5 79-97 123.5-34 160.5zM371 400q0-40 10.5-73.5t33.5-58 59-39 85-14.5q62 0 108 19.5t76 53.5 45 80.5 15 100.5q0 41-10.5 75.5t-33.5 58.5-59 37-88 13q-68 0-113.5-19t-74.5-52.5-41-80.5-12-101zM481 1057q0-33 8-63.5t26.5-55 49-39 76.5-14.5q67 0 108 23t63.5 57.5 30 76.5 7.5 79q0 32-8.5 61t-27.5 51.5-49.5 36-74.5 13.5q-55 0-94.5-18.5t-65-49.5-37.5-72-12-86z" unicode="&#x38;"/><glyph d="M160 0l540 567 32 34t30 34q-50-26-106.5-38.5t-116.5-12.5q-68 0-133 23t-116 69-82.5 115.5-31.5 163.5q0 113 44 213t122.5 175 186 119 233.5 44q109 0 193.5-32t142.5-89.5 88.5-137 30.5-174.5q0-82-16-153t-46-137-72-128.5-94-125.5l-381-460q-25-30-68-49.5t-98-19.5h-282zM487 996q0-92 47.5-140t141.5-48q58 0 104 19t78.5 53 50 82.5 17.5 106.5q0 47-14.5 83.5t-40.5 61.5-63 38.5-81 13.5q-54 0-98-20t-75.5-56.5-49-86-17.5-107.5z" unicode="&#x39;"/><glyph d="M25 161q0 37 13.5 68.5t37.5 55 57 37.5 72 14q38 0 70.5-14t57-37.5 38.5-55 14-68.5-14-69.5-38.5-56-57-36.5-70.5-13q-39 0-72 13t-57 36.5-37.5 56-13.5 69.5zM123 860q0 37 14 69t38 55.5 56.5 37 71.5 13.5q38 0 71-13.5t57.5-37 38-55.5 13.5-69-13.5-69-38-55.5-57.5-37-71-13.5q-39 0-71.5 13.5t-56.5 37-38 55.5-14 69z" horiz-adv-x="483" unicode="&#x3a;"/><glyph d="M25 180q0 33 12 61t35 49 54.5 33.5 70.5 12.5q46 0 79.5-16t56-43 33.5-62.5 11-74.5q0-51-16.5-109t-48.5-116-80.5-114.5-110.5-102.5l-55 49q-11 11-17 20.5t-6 22.5q0 16 18 36.5t41 47 45.5 58.5 32.5 73q-35 3-63.5 17.5t-49 37.5-31.5 53.5-11 66.5zM121 860q0 37 13.5 69t38 55.5 57 37 71.5 13.5q38 0 70.5-13.5t57.5-37 38.5-55.5 13.5-69-13.5-69-38.5-55.5-57.5-37-70.5-13.5q-39 0-71.5 13.5t-57 37-38 55.5-13.5 69z" horiz-adv-x="483" unicode="&#x3b;"/><glyph d="M139 629l16 124 882 434-27-220q-3-24-17.5-44t-44.5-34l-309-157q-28-14-59-24t-65-18q33-8 61-16.5t53-23.5l273-157q42-24 42-65 0-8-1-12l-29-220z" horiz-adv-x="1092" unicode="&#x3c;"/><glyph d="M115 392l28 219h928l-29-219h-927zM162 763l28 220h926l-26-220h-928z" unicode="&#x3d;"/><glyph d="M101 196l28 220q3 24 17.5 43.5t43.5 34.5l310 156q28 14 59 24t65 18q-33 8-61 17t-53 23l-273 158q-42 24-42 64 0 8 1 13l28 220 775-433-15-124z" horiz-adv-x="1092" unicode="&#x3e;"/><glyph d="M141 1354q40 32 84.5 59.5t95 48.5 106.5 32.5 120 11.5q87 0 152.5-24.5t109-66 65-96 21.5-116.5q0-87-22-147t-56.5-103-76-74-80.5-61-71-63.5-46-80.5l-45-146h-211v165q0 53 24 94.5t60.5 76.5 78.5 66 78 63 60 69.5 24 84.5q0 55-27.5 88t-95.5 33q-48 0-82-12t-59.5-25.5-45-25.5-38.5-12q-20 0-34.5 8.5t-22.5 28.5zM188 161q0 37 14 68.5t38 55 57 37.5 72 14q38 0 70.5-14t57-37.5 38.5-55 14-68.5-14-69.5-38.5-56-57-36.5-70.5-13q-39 0-72 13t-57 36.5-38 56-14 69.5z" horiz-adv-x="839" unicode="&#x3f;"/><glyph d="M47 484q0 127 31 246.5t86.5 224.5 134.5 192.5 174 150 205 97.5 229 35q127 0 238-45t194-126.5 131-197 48-257.5q0-128-37-240.5t-101.5-196-151.5-132.5-188-49q-29 0-56.5 7t-50.5 21.5-40 38-27 57.5q-65-67-130-95t-136-28q-54 0-94.5 19.5t-67 53.5-40 80-13.5 100q0 62 16.5 128.5t48.5 128 80.5 116 113 95.5 144.5 64.5 177 23.5q43 0 76.5-3t63-9 54.5-14.5 51-21.5l-141-387q-14-40-21-70t-7-52q0-39 18.5-54t48.5-15q40 0 75.5 34t62 93 42 138 15.5 169q0 105-28.5 186.5t-82 137.5-132 84.5-177.5 28.5q-134 0-247-57.5t-194.5-158-127.5-237-46-293.5q0-135 36-238t102-173 159-105.5 209-35.5q75 0 136.5 7.5t109.5 20 83.5 27 57.5 29.5q17 10 32 13.5t28 3.5q27 0 41.5-15.5t19.5-35.5l23-83q-51-34-111-62.5t-129.5-50-147.5-33.5-165-12q-162 0-292 52.5t-222 148-141.5 230.5-49.5 301zM623 472q0-94 63-94 19 0 38 7t37.5 25 36.5 47 33 72l103 281q-22 3-43 3-49 0-97.5-28t-86-75-61-109-23.5-129z" horiz-adv-x="1521" unicode="&#x40;"/><glyph d="M-82 0l713 1492h342l346-1492h-258q-43 0-69 20t-31 53l-47 268h-506l-111-268q-11-29-44-51t-73-22h-262zM501 568h375l-73 426q-9 53-20 108t-18 100q-8-25-21.5-56t-26-60.5-24.5-55-17-38.5z" horiz-adv-x="1357" unicode="&#x41;"/><glyph d="M45 0l184 1492h512q130 0 223-24.5t152-70 86-109.5 27-142q0-61-16-118t-50.5-105.5-88.5-87.5-131-66q121-33 179-102t58-174q0-103-39.5-193t-114.5-156.5-182-105-242-38.5h-557zM410 251h219q61 0 103 18t68 50 38 75 12 94q0 34-8.5 62t-29.5 46.5-55.5 29.5-84.5 11h-215zM483 858h160q56 0 101.5 11.5t77.5 38.5 49.5 72 17.5 112q0 83-43.5 117t-134.5 34h-181z" horiz-adv-x="1236" unicode="&#x42;"/><glyph d="M51 634q0 128 29 242.5t81 212 125 175 162.5 132 191.5 83.5 214 29q84 0 153-15.5t125-44 100-67.5 77-86l-117-135q-12-14-28.5-25.5t-43.5-11.5q-17 0-31.5 8.5t-29.5 20-33 26-44 26-61 20-83 8.5q-94 0-175.5-40t-141.5-114-94-180-34-238q0-95 23-169.5t63-126.5 95.5-79 119.5-27q56 0 98 8.5t71.5 22 50 29.5 37 29 30.5 22 31 9q16 0 27-5.5t16-13.5l116-140q-97-116-230.5-175.5t-303.5-59.5q-141 0-250 49.5t-184 136.5-113.5 206.5-38.5 257.5z" horiz-adv-x="1210" unicode="&#x43;"/><glyph d="M45 0l184 1492h537q146 0 263.5-49.5t199.5-136.5 126-206 44-258q0-122-28-231t-79-203-124-169-164-128.5-198-82-224-28.5h-537zM414 257h200q102 0 184.5 40.5t139.5 115 88 181 31 240.5q0 91-21 165t-62.5 126.5-102 81-138.5 28.5h-201z" horiz-adv-x="1396" unicode="&#x44;"/><glyph d="M45 0l184 1492h889l-33-257h-551l-46-361h423l-32-247h-421l-45-370h556l-33-257h-891z" horiz-adv-x="1060" unicode="&#x45;"/><glyph d="M45 0l184 1492h889l-33-257h-551l-50-393h462l-35-257h-458l-72-585h-336z" horiz-adv-x="1048" unicode="&#x46;"/><glyph d="M51 649q0 124 28.5 236t80.5 207.5 125 172 163 131 193 83.5 217 29q95 0 172.5-17t139-46.5 109.5-68 85-79.5l-109-134q-37-45-83-45-28 0-56 19-37 24-68.5 41.5t-64 29.5-68.5 18-81 6q-97 0-178.5-41.5t-139.5-117-90.5-181-32.5-232.5q0-98 24-176t68-132 105.5-82.5 136.5-28.5q61 0 110.5 10.5t94.5 30.5l29 243h-127q-29 0-44.5 13.5t-15.5 35.5l23 193h497l-77-624q-57-42-119-72t-129-49.5-141-28.5-158-9q-138 0-252.5 50.5t-196 139.5-126 211-44.5 264z" horiz-adv-x="1337" unicode="&#x47;"/><glyph d="M45 0l184 1492h336l-78-630h539l78 630h336l-185-1492h-335l77 635h-538l-78-635h-336z" horiz-adv-x="1425" unicode="&#x48;"/><glyph d="M74 0l182 1492h336l-182-1492h-336z" horiz-adv-x="606" unicode="&#x49;"/><glyph d="M-49 10l24 192q3 26 18 42.5t48 16.5q25 0 55.5-5.5t67.5-5.5q83 0 136 65t71 212l116 965h334l-116-956q-15-125-56.5-226.5t-109-174.5-161-112-214.5-39q-54 0-106 6t-107 20z" horiz-adv-x="806" unicode="&#x4a;"/><glyph d="M45 0l182 1492h334l-76-610h50q36 0 63.5 11.5t44.5 37.5l354 494q29 40 66 53.5t86 13.5h289l-469-609q-24-32-49.5-52.5t-53.5-34.5q35-14 61.5-38.5t45.5-65.5l315-692h-297q-29 0-48.5 4t-33.5 12-23 19.5-16 25.5l-231 525q-13 30-38.5 41.5t-68.5 11.5h-76l-79-639h-332z" horiz-adv-x="1351" unicode="&#x4b;"/><glyph d="M45 0l184 1492h334l-151-1226h501l-32-266h-836z" horiz-adv-x="978" unicode="&#x4c;"/><glyph d="M45 0l184 1492h254q22 0 38.5-1t29-5.5 22-15 15.5-29.5l262-786q22-65 37-132 16 34 34 67t37 65l457 786q20 35 51 43t60 8h262l-184-1492h-293l104 868q3 28 10 61.5t15 68.5l-449-770q-20-35-53-51.5t-72-16.5h-45q-39 0-68 17.5t-40 50.5l-262 772q-2-35-4-67.5t-5-59.5l-102-873h-295z" horiz-adv-x="1773" unicode="&#x4d;"/><glyph d="M45 0l184 1492h177q22 0 36.5-1.5t26-7 21-16 18.5-26.5l523-922q2 36 6 69t7 61l101 843h295l-185-1492h-174q-39 0-64.5 11.5t-43.5 43.5l-521 921q-2-29-5-55.5t-5-50.5l-102-870h-295z" horiz-adv-x="1425" unicode="&#x4e;"/><glyph d="M51 649q0 121 28.5 232t80 206.5 125 173 165 132.5 198 85 224.5 30q146 0 263.5-51.5t199-141.5 125-212 43.5-261q0-121-28-231.5t-80-206-125-173-164-132.5-197.5-85-224.5-30q-147 0-264.5 51.5t-199.5 141-125.5 211-43.5 261.5zM393 656q0-92 21.5-166.5t63-128 103-82.5 140.5-29q102 0 183.5 42t138.5 118.5 87.5 184 30.5 239.5q0 92-22 167t-64.5 129-104 83-139.5 29q-102 0-183-42.5t-137.5-119-87-185-30.5-239.5z" horiz-adv-x="1499" unicode="&#x4f;"/><glyph d="M45 0l182 1492h494q133 0 227.5-32.5t155.5-89 90-134 29-166.5q0-122-37.5-226t-114.5-179.5-194.5-118.5-278.5-43h-160l-61-503h-332zM470 754h161q72 0 120.5 21t78.5 59 43.5 91.5 13.5 116.5q0 44-12 81t-36.5 63.5-62 41.5-88.5 15h-158z" horiz-adv-x="1208" unicode="&#x50;"/><glyph d="M51 649q0 121 28.5 232t80 206.5 125 173 165 132.5 198 85 224.5 30q146 0 263.5-51.5t199-141.5 125-212 43.5-261q0-114-24.5-218.5t-70.5-196-111.5-168-146.5-132.5l298-408h-274q-58 0-105.5 14t-77.5 58l-144 208q-79-15-163-15-147 0-264.5 51.5t-199.5 141-125.5 211-43.5 261.5zM393 656q0-92 21.5-166.5t63-128 103-82.5 140.5-29q102 0 183.5 42t138.5 118.5 87.5 184 30.5 239.5q0 92-22 167t-64.5 129-104 83-139.5 29q-102 0-183-42.5t-137.5-119-87-185-30.5-239.5z" horiz-adv-x="1499" unicode="&#x51;"/><glyph d="M45 0l182 1492h453q137 0 234-29t158.5-80.5 89.5-121.5 28-152q0-83-22-156.5t-64-135.5-103-110-139-78q31-17 58-42t43-62l217-525h-301q-42 0-71 16.5t-40 46.5l-162 442q-11 29-30 40.5t-56 11.5h-75l-68-557h-332zM474 787h122q72 0 122 22t81 59 45 86.5 14 103.5q0 42-12 76t-38.5 58.5-66 37.5-92.5 13h-119z" horiz-adv-x="1257" unicode="&#x52;"/><glyph d="M-31 180l119 156q13 17 34.5 28.5t43.5 11.5q29 0 56-20t59.5-44 76-44 107.5-20q93 0 143.5 50.5t50.5 150.5q0 46-23 75.5t-60 50-85.5 36.5-98.5 34.5-98 43.5-85.5 65.5-60.5 99-23 144.5q0 99 37.5 191t107 162.5 169 112.5 223.5 42q63 0 123-13t112-36.5 95-56 73-70.5l-100-137q-17-25-35.5-36t-42.5-11-47.5 15.5-52.5 33.5-67 33.5-89 15.5q-47 0-82.5-13t-59-37-35.5-55.5-12-69.5q0-41 23-68.5t61.5-48.5 87-38.5 99-38 99-47 87-66.5 61.5-96.5 23-135.5q0-113-39-212t-111.5-173-176.5-117.5-234-43.5q-65 0-130 14t-124.5 40.5-111 62-87.5 79.5z" horiz-adv-x="1024" unicode="&#x53;"/><glyph d="M106 1228l33 264h1096l-35-264h-379l-151-1228h-332l149 1228h-381z" horiz-adv-x="1130" unicode="&#x54;"/><glyph d="M96 506q0 48 6 99l107 887h334l-109-887q-2-18-3-36t-1-35q0-127 58-199.5t167-72.5q62 0 113.5 24t90.5 68.5 64.5 108 34.5 142.5l109 887h334l-109-887q-17-136-72-250t-142.5-196.5-203-128.5-253.5-46q-125 0-223 37.5t-165 107-102 165.5-35 212z" horiz-adv-x="1366" unicode="&#x55;"/><glyph d="M121 1492h268q43 0 68.5-20.5t31.5-52.5l156-822q9-50 22-113t21-128q22 65 49.5 127t48.5 114l349 822q6 13 17 26.5t27 24 35 16.5 39 6h271l-733-1492h-304z" horiz-adv-x="1400" unicode="&#x56;"/><glyph d="M131 1492h262q43 0 69-20t32-53l104-804q4-29 6-59t4-54q2-30 2-58 15 48 32 91t32 80l305 804q11 28 43 50.5t74 22.5h78q43 0 70-20t32-53l115-804q5-36 10.5-78t9.5-88q13 46 26.5 88t26.5 78l295 804q10 29 43.5 51t75.5 22h264l-608-1492h-303l-137 942q-3 23-7.5 50t-7.5 57q-11-30-21.5-57t-19.5-50l-364-942h-301z" horiz-adv-x="2027" unicode="&#x57;"/><glyph d="M-78 0l561 796-323 696h303q33 0 46.5-8.5t22.5-29.5l197-471q5 10 11 19.5t14 20.5l262 426q14 24 31 33.5t40 9.5h351l-497-680 359-812h-299q-33 0-51 16.5t-26 36.5l-221 548q-4-7-8.5-13t-8.5-13l-330-522q-19-30-44.5-41.5t-55.5-11.5h-334z" horiz-adv-x="1355" unicode="&#x58;"/><glyph d="M100 1492h297q43 0 67-20t36-53l143-451q14-45 26-87t20-81q19 39 43 80.5t50 87.5l254 451q15 28 45 50.5t72 22.5h277l-612-921-70-571h-334l70 568z" horiz-adv-x="1286" unicode="&#x59;"/><glyph d="M-29 0l13 98q3 20 12.5 39t21.5 36l755 1062h-597l33 257h1032l-14-100q-3-20-13-39t-22-36l-754-1060h631l-33-257h-1065z" horiz-adv-x="1146" unicode="&#x5a;"/><glyph d="M-23-328l236 1920h430l-14-116q-4-30-29.5-51.5t-58.5-21.5h-96l-190-1540h99q31 0 50-19t19-47q0-1-.5-4t-2-14.5-4.5-37-8-69.5h-431z" horiz-adv-x="565" unicode="&#x5b;"/><glyph d="M102 1494h129q54 0 90.5-27.5t51.5-76.5l332-1493h-130q-48 0-89.5 28t-55.5 82z" horiz-adv-x="765" unicode="&#x5c;"/><glyph d="M-47-328l16 116q5 31 29 53t57 22h98l190 1540h-99q-32 0-51.5 18.5t-19.5 44.5q0 2 .5 5t.5 5l16 116h431l-238-1920h-430z" horiz-adv-x="565" unicode="&#x5d;"/><glyph d="M143 786l396 706h206l396-706h-234q-28 0-46 14t-30 36l-126 242q-17 33-32.5 62.5t-26.5 59.5q-10-30-23.5-59.5t-30.5-62.5l-123-242q-11-20-30-35t-50-15h-246z" unicode="&#x5e;"/><glyph d="M-100-307l24 190h744l-25-190h-743z" horiz-adv-x="743" unicode="&#x5f;"/><glyph d="M-2 1506h287q45 0 66-14.5t32-44.5l96-251h-174q-34 0-54 9t-38 32z" horiz-adv-x="626" unicode="&#x60;"/><glyph d="M30 366q0 144 52.5 273.5t147.5 227 225 154.5 285 57q76 0 154-10t154-37l-129-1031h-170q-30 0-50 7.5t-32 21-16.5 32-4.5 39.5v76q-66-90-145.5-141t-175.5-51q-57 0-110.5 23t-94.5 69.5-65.5 119-24.5 170.5zM347 422q0-51 8.5-87t22-58 32.5-32.5 42-10.5q35 0 67.5 26.5t61.5 71.5 53.5 105.5 42.5 128.5l37 294h-19q-78 0-142-34.5t-110-94.5-71-139.5-25-169.5z" horiz-adv-x="1083" unicode="&#x61;"/><glyph d="M44 0l186 1533h312l-79-638q71 86 154 134.5t177 48.5q66 0 120-23t93.5-72 61.5-125.5 22-181.5q0-139-42.5-264.5t-114.5-221-165.5-151-196.5-55.5q-79 0-138.5 30t-101.5 79l-3-10q-14-43-37-63t-74-20h-174zM384 262q30-25 66.5-35t70.5-10q55 0 102 37t80.5 97 52.5 136.5 19 156.5q0 101-29.5 147.5t-78.5 46.5q-34 0-70.5-26t-70-70.5-63-104-48.5-127.5z" horiz-adv-x="1126" unicode="&#x62;"/><glyph d="M42 433q0 130 42.5 247t119 205 180.5 139.5 229 51.5q106 0 182.5-36t137.5-114l-103-118q-11-11-25-20t-32-9q-20 0-34 9t-30.5 18.5-40 18.5-61.5 9q-47 0-91.5-27.5t-79.5-78.5-56-126-21-170q0-53 12.5-92.5t34-65.5 50-39.5 61.5-13.5q49 0 79.5 14t53 30.5 42 30 46.5 13.5q15 0 30-7t26-19l82-97q-51-56-98.5-95t-97.5-62.5-107-34-126-10.5q-93 0-167.5 31.5t-127.5 90-81.5 141.5-28.5 186z" horiz-adv-x="897" unicode="&#x63;"/><glyph d="M36 387q0 92 19.5 179.5t54 164.5 83 141 106 109.5 122 71 133.5 25.5q66 0 118.5-22t92.5-58l68 535h311l-191-1533h-170q-30 0-49.5 7.5t-31.5 21-16.5 32-4.5 39.5v89q-73-96-161-150.5t-187-54.5q-66 0-120 23t-93.5 72-61.5 125.5-22 182.5zM351 418q0-101 30-147t79-46q33 0 68 24.5t68.5 67.5 62 101 49.5 125l32 258q-30 24-66 34t-69 10q-55 0-101.5-37t-80.5-97-53-136.5-19-156.5z" horiz-adv-x="1128" unicode="&#x64;"/><glyph d="M42 433q0 85 19 166t54.5 152 86.5 131 115 103 140.5 67 162.5 24q85 0 151-24.5t111-64 68.5-88.5 23.5-98q0-73-29-133.5t-100-107-191-79-303-51.5q2-109 47.5-159t135.5-50q42 0 72.5 7.5t53.5 18.5 41 23l36 24q17 11 35.5 18t41.5 7q15 0 29.5-7.5t25.5-19.5l82-95q-56-55-110-96t-110.5-67-120.5-38-140-12q-94 0-173 32t-136 91-88 142-31 184zM374 627q99 15 160.5 32t95.5 37 45.5 43 11.5 49q0 27-20.5 50.5t-65.5 23.5q-79 0-138-62.5t-89-172.5z" horiz-adv-x="991" unicode="&#x65;"/><glyph d="M52-252l132 1096-62 14q-27 6-45 22t-18 44q0 7 1 11l17 125h134l7 60q11 91 50 165t99.5 126 140 81 171.5 29q36 0 66-5t61-15l-29-160q-5-27-28.5-35t-47.5-8q-79 0-125.5-42t-58.5-146l-6-50h215l-29-217h-201l-96-792-55-178q-18-59-56-92t-108-33h-129z" horiz-adv-x="679" unicode="&#x66;"/><glyph d="M-77-87q0 90 45.5 150t117.5 96.5 159 51 170 14.5q47 0 89.5-4t78.5-11q-2 12-2 25v27q0 54 27 124-40-27-91.5-42t-128.5-15q-60 0-115.5 20t-98 61-68 102.5-25.5 146.5q0 79 30 154.5t90 134.5 148.5 94.5 206.5 35.5q60 0 116-13.5t103-41.5h305l-14-99q-9-62-59-79l-91-31q6-34 7-70 0-66-18-111.5t-39.5-86.5-39.5-84-18-102q0-42 14-77t30-72 30-78 14-94q0-82-36-155t-103.5-128-166-87.5-224.5-32.5q-103 0-185.5 21.5t-139 58.5-87.5 88-31 109zM224-48q0-52 38.5-79t129.5-27q47 0 87 12.5t68 34.5 44 52.5 16 68.5v13q0 6-1 11-52 8-95.5 12t-79.5 4q-55 0-94.5-8t-64.5-22-36.5-33-11.5-39zM370 657q0-68 27.5-106t82.5-38q38 0 66 19.5t47 50.5 29 70 10 79q0 67-27.5 103.5t-85.5 36.5q-38 0-66-17.5t-46.5-47.5-27.5-69-9-81z" horiz-adv-x="1032" unicode="&#x67;"/><glyph d="M44 0l186 1533h318l-75-610q73 80 154 117.5t167 37.5q59 0 109.5-21.5t86.5-63 56.5-102 20.5-138.5q0-18-1.5-38t-3.5-40l-80-675h-317l79 675q2 16 3.5 30t1.5 26q0 55-19.5 76.5t-58.5 21.5q-32 0-67-18.5t-67-53.5-60-84-47-110l-69-563h-317z" horiz-adv-x="1134" unicode="&#x68;"/><glyph d="M56 0l127 1062h314l-127-1062h-314zM183 1353q0 38 15.5 71.5t41.5 59 59 40.5 69 15q37 0 70.5-14.5t59.5-40 42-59 16-72.5q0-38-16.5-71.5t-43-58.5-61-40-69.5-15q-36 0-69 15t-58 40-40.5 58.5-15.5 71.5z" horiz-adv-x="552" unicode="&#x69;"/><glyph d="M-165-347l31 167q4 22 18 32t47 10 55 6 36.5 21.5 22.5 41.5 13 67l129 1064h312l-129-1064q-9-75-37.5-141t-77-115.5-118-78.5-161.5-29q-45 0-76.5 5t-64.5 14zM173 1353q0 38 15.5 71.5t41.5 59 59 40.5 68 15q37 0 71-14.5t60-40 42-59 16-72.5q0-38-16.5-71.5t-43-58.5-61-40-70.5-15-68.5 15-57.5 40-40.5 58.5-15.5 71.5z" horiz-adv-x="546" unicode="&#x6a;"/><glyph d="M48 0l189 1533h313l-106-859h22q27 0 43 8t33 30l219 299q19 27 42.5 39t57.5 12h285l-297-378q-20-27-45-47.5t-51-35.5q22-17 37.5-40t27.5-53l213-508h-276q-34 0-56 12t-34 41l-148 376q-11 26-24 33.5t-41 7.5h-33l-58-470h-313z" horiz-adv-x="1099" unicode="&#x6b;"/><glyph d="M44 0l186 1533h314l-187-1533h-313z" horiz-adv-x="532" unicode="&#x6c;"/><glyph d="M36 0l129 1062h164q49 0 76.5-23t27.5-75v-63q68 90 142.5 133.5t156.5 43.5q90 0 149.5-58t75.5-170q71 118 155 173t190 55q59 0 107.5-21t83-62 53.5-100 19-137q0-19-1.5-40.5t-3.5-42.5l-80-675h-314l80 675q2 17 3 31.5t1 27.5q0 52-16 72.5t-49 20.5q-32 0-61-16.5t-55.5-49-48-78-37.5-101.5l-69-582h-313l80 675q2 17 3 31.5t1 27.5q0 52-16.5 72.5t-48.5 20.5-62-17-56-50-47.5-79.5-37.5-103.5l-70-577h-311z" horiz-adv-x="1632" unicode="&#x6d;"/><glyph d="M36 0l127 1062h164q49 0 76.5-23t27.5-75v-85q77 102 168 150.5t188 48.5q59 0 109-21.5t86-63 56.5-102 20.5-138.5q0-18-1.5-38t-3.5-40l-80-675h-318l80 675q2 16 3 30t1 26q0 54-19 75t-56 21q-35 0-73-21.5t-72.5-60-63-94.5-44.5-124l-59-527h-317z" horiz-adv-x="1126" unicode="&#x6e;"/><glyph d="M32 432q0 141 46.5 259.5t125.5 204.5 182.5 134 218.5 48q89 0 166-29.5t134-86.5 89.5-140.5 32.5-191.5q0-139-46.5-257.5t-125.5-205-183-135-218-48.5q-89 0-166.5 29.5t-134.5 86.5-89 140-32 192zM349 434q0-114 31.5-164.5t101.5-50.5q53 0 95.5 32.5t71.5 88 45 130 16 158.5q0 116-31.5 165.5t-101.5 49.5q-53 0-95.5-32.5t-71.5-87.5-45-130-16-159z" horiz-adv-x="1058" unicode="&#x6f;"/><glyph d="M-5-337l170 1399h164q49 0 76.5-23t27.5-75v-97q73 98 162 154.5t190 56.5q66 0 120-23t93.5-72 61.5-125.5 22-181.5q0-139-42.5-264.5t-114-221-165-151-196.5-55.5q-67 0-119 21.5t-92 56.5l-49-399h-309zM378 261q30-24 66-34t69-10q55 0 102 37t80.5 97 52.5 136.5 19 156.5q0 101-29.5 147.5t-79.5 46.5q-33 0-68.5-25.5t-69-69-62.5-101.5-48-125z" horiz-adv-x="1107" unicode="&#x70;"/><glyph d="M30 366q0 144 52.5 273.5t147.5 227 225 154.5 285 57q76 0 154-10t154-37l-172-1368h-209q-27 0-44.5 9t-28.5 22-16 29.5-5 32.5q0 10 1 16l49 373q-62-77-136.5-119t-161.5-42q-57 0-110.5 23t-94.5 69.5-65.5 119-24.5 170.5zM347 422q0-51 8.5-87t22-58 32.5-32.5 42-10.5q34 0 66.5 26.5t61.5 71 53.5 104.5 42.5 127l38 297h-19q-78 0-142-34.5t-110-94.5-71-139.5-25-169.5z" horiz-adv-x="1083" unicode="&#x71;"/><glyph d="M36 0l129 1062h164q49 0 76.5-23t27.5-75v-121q61 109 133 167t149 58q43 0 85-19l-58-294q-52 23-99 22-79 0-140-71t-99-229l-57-477h-311z" horiz-adv-x="768" unicode="&#x72;"/><glyph d="M-26 115l78 116q14 20 33 32t47 12q26 0 44-12l40-26q22-14 51.5-26.5t77.5-12.5q68 0 100.5 30t32.5 71q0 32-17 52.5t-44.5 35-62.5 26.5-71.5 26.5-71.5 33.5-62.5 47.5-44.5 70.5-17 101q0 74 27 143.5t81 123.5 134 86.5 186 32.5 189.5-36.5 138.5-90.5l-82-112q-14-18-26.5-26.5t-33.5-8.5q-20 0-40 9t-43 21-52 21-67 9q-71 0-101-27t-30-70q0-28 16.5-47.5t44.5-34.5 63-28 72-29 72.5-36.5 63-50 44.5-70.5 17-97q0-80-32-151t-91-124-143.5-84-190.5-31q-50 0-99 10t-92.5 27.5-79.5 41.5-59 52z" horiz-adv-x="808" unicode="&#x73;"/><glyph d="M78 894q0 1 2 18t4 36 4 35 2 18l3 28 161 33 89 259q15 49 70 49h172l-39-310h237l-26-217h-238l-51-417q-5-42-7.5-66t-4-37-2-17.5-.5-5.5q0-30 13.5-50t43.5-20q16 0 27 4t19 8.5 15.5 8 16.5 3.5q14 0 21-6.5t14-21.5l69-150q-63-46-136-69t-146-23q-61 0-110.5 16.5t-85 49-55.5 77.5-22 102v18q0 10 1.5 29t5 50 10.5 83l54 434h-85q-19 0-32.5 12.5t-13.5 38.5z" horiz-adv-x="747" unicode="&#x74;"/><glyph d="M68 310q0 18 1.5 38t3.5 40l80 674h317l-80-674q-2-16-3-30t-1-26q0-54 19-76t57-22q32 0 67 19t68 53.5 61 83.5 47 110l68 562h318l-129-1062h-162q-113 0-113 104v68q-77-96-165-142t-183-46q-59 0-109 21.5t-86 63-56 102-20 139.5z" horiz-adv-x="1124" unicode="&#x75;"/><glyph d="M65 1062h262q33 0 52-16t23-39l70-477q9-60 15.5-118t10.5-116q18 57 40 114.5t47 119.5l186 477q9 25 32.5 40t51.5 15h252l-516-1062h-268z" horiz-adv-x="1056" unicode="&#x76;"/><glyph d="M75 1062h243q31 0 52.5-15.5t23.5-39.5l31-477q0-4 .5-7.5t.5-7.5q3-49 5-95t3-92q18 49 39.5 99t41.5 103l178 478q8 24 32.5 39.5t51.5 15.5h137q33 0 53-16t23-39l62-478q7-52 13.5-102t11.5-99q14 49 30.5 98t34.5 103l149 477q8 24 31.5 39.5t50.5 15.5h234l-432-1062h-248q-18 0-30 12.5t-17 40.5l-78 530q-3 23-5.5 44.5t-4.5 44.5q-8-24-17.5-46.5t-17.5-44.5l-203-528q-22-53-68-53h-237z" horiz-adv-x="1546" unicode="&#x77;"/><glyph d="M-60 0l414 575-238 487h291q31 0 44.5-8t22.5-29l118-273q7 13 15 25.5t17 25.5l139 216q27 43 67 43h289l-368-485 264-577h-291q-31 0-49 16.5t-27 38.5l-132 325q-5-11-11-21.5t-12-18.5l-189-285q-14-22-34-38.5t-50-16.5h-280z" horiz-adv-x="1095" unicode="&#x78;"/><glyph d="M75 1062h268q34 0 51-16.5t23-38.5l92-458q6-30 11-59t8-59q12 30 26.5 60t28.5 60l196 456q12 24 36 39.5t48 15.5h256l-688-1338q-16-32-40-46.5t-58-14.5h-238l243 432z" horiz-adv-x="1056" unicode="&#x79;"/><glyph d="M-5 0l16 129q2 19 16.5 48.5t34.5 55.5l463 593h-403l29 236h776l-17-127q-4-33-18.5-62.5t-32.5-51.5l-459-585h418l-28-236h-795z" horiz-adv-x="913" unicode="&#x7a;"/><glyph d="M12-23q0 66 13.5 126t30 116 29.5 111.5 13 111.5q0 46-19 75.5t-65 29.5l23 171q38 0 61.5 16.5t36.5 48.5 18 81 5 115q0 11-.5 28.5t-.5 36.5-.5 36.5-.5 29.5q0 117 25.5 206.5t79 151 137.5 93 200 31.5h47l-16-133q-2-15-10-25.5t-18-17.5-21-10-19-3q-58 0-89-42t-40-116q-7-56-9-105.5t-3.5-96.5-3-91.5-6.5-90.5q-5-39-19.5-75t-37.5-67-54.5-53.5-71.5-34.5q65-23 96-76t31-118q0-58-11.5-114t-26-111-26-111.5-11.5-116.5q0-55 22.5-88t71.5-33q16 0 34.5-13t18.5-39q0-7-2-27t-5-42-5.5-41.5-3.5-28.5h-50q-91 0-157 22t-108.5 62.5-62.5 96.5-20 124z" horiz-adv-x="565" unicode="&#x7b;"/><glyph d="M123-337v1931h246v-1931h-246z" horiz-adv-x="614" unicode="&#x7c;"/><glyph d="M-49-328l18 131q5 31 29 45.5t41 14.5q57 1 87.5 42.5t39.5 113.5q7 55 9.5 105t3.5 96.5 2.5 91 6.5 89.5q4 39 18.5 75.5t37.5 67 54.5 53.5 70.5 35q-65 23-96 76.5t-31 119.5q0 57 12 112.5t26.5 111 26.5 112.5 12 117q0 54-22 87.5t-70 34.5q-8 0-17.5 2.5t-18 8.5-14 15.5-5.5 22.5q0 1 2 17.5t4 36.5 4 37 2 18l4 31h50q90 0 155.5-22t108-62.5 62.5-97 20-125.5q0-65-13.5-124.5t-29-116-28.5-111.5-13-111q0-46 18-75t64-29l-21-171q-38 0-61.5-16t-36.5-48.5-18-82-5-115.5v-130q0-117-25.5-206.5t-79-151-137-93.5-198.5-32h-49z" horiz-adv-x="565" unicode="&#x7d;"/><glyph d="M20 394q0 87 23.5 157t66.5 118.5 106 74.5 142 26q54 0 102-12t89-26.5 75-26.5 62-12q49 0 75.5 32t26.5 93h256q0-87-23-156.5t-66-118-106-75-142-26.5q-54 0-102 12t-89 27-75 26.5-62 11.5q-49 0-76-31.5t-27-93.5h-256z" unicode="&#x7e;"/><glyph d="M113 457q0 126 40.5 235.5t117 192 187.5 132.5 253 56l32 148q3 13 11.5 26t20 23 26.5 16.5 33 6.5h112l-52-234q77-16 137.5-50.5t109.5-86.5l-92-105q-14-17-28-25t-38-8q-15 0-29 5.5t-30.5 13.5-35.5 16.5-43 17.5l-138-628q47 6 79.5 19.5t57.5 27 45.5 24.5 44.5 11q39 0 53-24l72-105q-45-44-94.5-75.5t-100.5-52-103-31.5-104-15l-28-132q-6-29-31.5-51.5t-58.5-22.5h-113l46 211q-79 15-144.5 53.5t-113.5 97.5-74.5 138-26.5 175zM414 471q0-87 28-147.5t83-90.5l135 614q-65-11-111.5-42t-76.5-79.5-44-113-14-141.5z" unicode="&#xa2;"/><glyph d="M-12 0l24 184q70 14 106.5 54t45.5 116l31 251h-150l15 120q2 13 10 26t20 23 28 17 35 7h65l28 226q12 97 55.5 184.5t115.5 153.5 171.5 105 222.5 39q90 0 157.5-20.5t118-56 84-86.5 56.5-110l-133-79q-17-11-36-14.5t-36-3.5q-47 0-78 36-18 23-34 39.5t-34 26.5-41 14.5-55 4.5q-88 0-148-59.5t-73-171.5l-28-228h435l-15-120q-2-13-9.5-26.5t-20-24-28-16.5-34.5-6h-350l-20-169q-8-65-29.5-115.5t-60.5-94.5q50 11 100 18t99 7h530l-16-123q-3-23-15.5-45.5t-31-40.5-44.5-30-54-12h-979z" unicode="&#xa3;"/><glyph d="M92 236l23 162h310l11 90h-311l20 164h259l-298 838h256q42 0 67-20t34-53l127-449q14-52 24.5-96.5t15.5-87.5q14 43 35 87t48 97l231 449q14 29 44.5 51t72.5 22h258l-507-838h261l-20-164h-311l-11-90h309l-20-162h-309l-29-236h-305l29 236h-314z" unicode="&#xa5;"/><glyph d="M72 746q0 105 27 203t76.5 182 119.5 154 155 119.5 181.5 76.5 202.5 27q105 0 203-27t182.5-76.5 154.5-119.5 119.5-154 76.5-181.5 27-203.5q0-104-27-201.5t-76.5-181.5-119.5-154-154.5-119.5-182.5-76.5-203-27-202 27-182 76.5-155 119.5-119.5 154-76.5 181-27 202zM242 746q0-130 45.5-242.5t125.5-196 188-131 233-47.5q126 0 235 47.5t189.5 131 127 196 46.5 242.5q0 87-21 167t-59.5 149.5-93 126-121 96.5-143 62-160.5 22q-125 0-233-48t-188-132.5-125.5-198.5-45.5-244zM383 750q0 104 37 191.5t101 151.5 150 99.5 185 35.5q118 0 203-41t137-103l-84-111q-7-9-20-19.5t-33-10.5-35 9.5-33.5 20.5-45.5 20-73 9q-103 0-155.5-68t-52.5-184q0-61 13.5-108.5t38-79.5 59-48 75.5-16q48 0 76 8.5t46.5 19 32 19.5 33.5 10q12 0 23.5-6t19.5-15l105-108q-55-77-145-116.5t-207-39.5q-103 0-187 37.5t-142.5 102.5-90 152.5-31.5 187.5z" horiz-adv-x="1607" unicode="&#xa9;"/><glyph d="M94 498l31 247h514l-33-247h-512z" horiz-adv-x="702" unicode="&#xad;"/><glyph d="M66 746q0 105 27 203t76.5 182 119 154 154.5 119.5 182 76.5 202 27 203-27 182.5-76.5 155-119.5 120-154 76.5-181.5 27-203.5q0-104-27-201.5t-76.5-181.5-120-154-155-119.5-182-76.5-203.5-27q-105 0-202 27t-182 76.5-154.5 119.5-119 154-76.5 181-27 202zM236 746q0-130 45.5-242.5t125-196 187.5-131 233-47.5q118 0 221 42t183 117h-221q-56 0-78 40l-94 236q-8 18-22.5 25.5t-39.5 7.5h-33v-309h-274v922h360q102 0 176.5-18t122.5-53 70.5-86.5 22.5-116.5q0-43-10.5-82.5t-31.5-72.5-54-60-79-44q30-15 50-39.5t37-57.5l127-264q78 83 121.5 192.5t43.5 237.5q0 87-21 167t-59 149.5-92.5 126-121 96.5-143.5 62-161 22q-125 0-233-48t-187.5-132.5-125-198.5-45.5-244zM743 785h66q49 0 77 8t42.5 22 18 36 3.5 50q0 27-3.5 47t-15.5 33.5-36.5 21-65.5 7.5h-86v-225z" horiz-adv-x="1607" unicode="&#xae;"/><glyph d="M254 1196l158 251q18 29 43 44t71 15h295l-280-269q-25-24-48-32.5t-57-8.5h-182z" horiz-adv-x="626" unicode="&#xb4;"/><glyph horiz-adv-x="845" unicode="&#x2000;"/><glyph horiz-adv-x="1691" unicode="&#x2001;"/><glyph horiz-adv-x="845" unicode="&#x2002;"/><glyph horiz-adv-x="1691" unicode="&#x2003;"/><glyph horiz-adv-x="563" unicode="&#x2004;"/><glyph horiz-adv-x="422" unicode="&#x2005;"/><glyph horiz-adv-x="281" unicode="&#x2006;"/><glyph horiz-adv-x="281" unicode="&#x2007;"/><glyph horiz-adv-x="210" unicode="&#x2008;"/><glyph horiz-adv-x="337" unicode="&#x2009;"/><glyph horiz-adv-x="93" unicode="&#x200a;"/><glyph d="M94 498l31 247h514l-33-247h-512z" horiz-adv-x="702" unicode="&#x2010;"/><glyph d="M94 498l31 247h514l-33-247h-512z" horiz-adv-x="702" unicode="&#x2011;"/><glyph d="M94 498l31 247h514l-33-247h-512z" horiz-adv-x="702" unicode="&#x2012;"/><glyph d="M164 515l26 210h775l-27-210h-774z" horiz-adv-x="1097" unicode="&#x2013;"/><glyph d="M164 515l26 210h1307l-27-210h-1306z" horiz-adv-x="1630" unicode="&#x2014;"/><glyph d="M163 1179q0 121 67 234t198 207l87-55q9-5 14.5-15t5.5-20q0-14-7.5-24.5t-22.5-27.5q-9-11-24-31.5t-28.5-48-23-62-9.5-74.5q0-32 7.5-66.5t25.5-72.5q4-8 4-19 0-18-14.5-33.5t-39.5-23.5l-192-69q-25 50-36.5 100.5t-11.5 100.5z" horiz-adv-x="448" unicode="&#x2018;"/><glyph d="M123 1028q0 14 7 24.5t22 27.5q10 10 24 31t28 48.5 24 62 10 74.5q0 32-8 66.5t-25 72.5q-4 8-4 19 0 18 14 33.5t39 23.5l192 69q25-50 37-100t12-101q0-121-67.5-234t-198.5-207l-87 55q-9 5-14 15t-5 20z" horiz-adv-x="448" unicode="&#x2019;"/><glyph d="M163 1179q0 121 67 234t198 207l87-55q9-5 14.5-15t5.5-20q0-14-7.5-24.5t-22.5-27.5q-9-11-24-31.5t-28.5-48-23-62-9.5-74.5q0-32 7.5-66.5t25.5-72.5q4-8 4-19 0-18-14.5-33.5t-39.5-23.5l-192-69q-25 50-36.5 100.5t-11.5 100.5zM507 1179q0 121 67 234t198 207l87-55q9-5 14.5-15t5.5-20q0-14-7.5-24.5t-22.5-27.5q-9-11-24-31.5t-28.5-48-23-62-9.5-74.5q0-32 7.5-66.5t25.5-72.5q4-8 4-19 0-18-14.5-33.5t-38.5-23.5l-193-69q-25 50-36.5 100.5t-11.5 100.5z" horiz-adv-x="792" unicode="&#x201c;"/><glyph d="M123 1028q0 14 7 24.5t22 27.5q10 10 24 31t28 48.5 24 62 10 74.5q0 32-8 66.5t-25 72.5q-4 8-4 19 0 18 14 33.5t39 23.5l192 69q25-50 37-100t12-101q0-121-67.5-234t-198.5-207l-87 55q-9 5-14 15t-5 20zM465 1028q0 14 7 24.5t22 27.5q10 10 24 31t28 48.5 24 62 10 74.5q0 32-8 66.5t-25 72.5q-4 8-4 19 0 18 14 33.5t39 23.5l192 69q25-50 37-100t12-101q0-121-67.5-234t-198.5-207l-87 55q-9 5-14 15t-5 20z" horiz-adv-x="792" unicode="&#x201d;"/><glyph d="M102 606q0 102 40 192.5t108.5 158 161 106.5 196.5 39q105 0 197.5-39t161.5-106.5 109-157.5 40-193q0-101-40-191t-109-157-161-105.5-198-38.5q-104 0-196.5 38.5t-161 105.5-108.5 157-40 191z" unicode="&#x2022;"/><glyph d="M25 161q0 37 13.5 68.5t37.5 55 57 37.5 72 14q38 0 70.5-14t57-37.5 38.5-55 14-68.5-14-69.5-38.5-56-57-36.5-70.5-13q-39 0-72 13t-57 36.5-37.5 56-13.5 69.5zM590 161q0 37 13.5 68.5t38 55 57 37.5 71.5 14q38 0 70.5-14t57.5-37.5 38.5-55 13.5-68.5-13.5-69.5-38.5-56-57.5-36.5-70.5-13q-39 0-71.5 13t-57 36.5-38 56-13.5 69.5zM1155 161q0 37 14 68.5t38 55 56.5 37.5 71.5 14q38 0 71-14t57.5-37.5 38.5-55 14-68.5-14-69.5-38.5-56-57.5-36.5-71-13q-39 0-71.5 13t-56.5 36.5-38 56-14 69.5z" horiz-adv-x="1613" unicode="&#x2026;"/><glyph horiz-adv-x="337" unicode="&#x202f;"/><glyph horiz-adv-x="422" unicode="&#x205f;"/><glyph d="M45 544l21 163h102q2 26 4.5 50t6.5 49h-101l20 163h119q40 124 104.5 222.5t149 168.5 185 107 210.5 37q72 0 132.5-14.5t109.5-42.5 87-66.5 65-85.5l-123-113q-14-13-28.5-23t-39.5-10q-15 0-27 7.5t-23.5 18.5-25 24-33 24-47 18.5-67.5 7.5q-105 0-188-71.5t-129-208.5h489l-10-92q-2-12-10-25t-20-23-28.5-16.5-36.5-6.5h-421q-3-24-6-49t-5-50h408l-12-91q-2-13-10-26t-20-23.5-28-16.5-35-6h-302q12-151 72-227t157-76q67 0 107 17.5t67 40 46.5 40 45.5 17.5q14 0 23-3t18-14l119-120q-85-115-206.5-174t-266.5-59q-120 0-210 41.5t-152 115.5-96 176.5-41 224.5h-120z" unicode="&#x20ac;"/><glyph d="M145 1323l23 167h483l-22-167h-139l-56-459h-207l55 459h-137zM616 864l76 626h177q26 0 45-4t24-27l53-231q6-20 11.5-45t10.5-45q9 20 19.5 43t24.5 47l114 231q11 24 26.5 27.5t39.5 3.5h186l-75-626h-185l33 269 26 107-145-277q-11-22-32-32.5t-46-10.5h-28q-24 0-42.5 11t-23.5 32l-72 270q0-29-1-56.5t-3-43.5l-30-269h-183z" horiz-adv-x="1380" unicode="&#x2122;"/><glyph d="M0 1060h1060v-1060h-1060v1060z" horiz-adv-x="1060" unicode="&#xe000;"/></font>
</defs>
</svg>
